<svg width="423" height="82" viewBox="0 0 423 82" fill="none" xmlns="http://www.w3.org/2000/svg">
<path d="M156.305 45.7716C155.435 48.4055 153.223 49.9278 149.912 49.9278C145.376 49.9278 142.414 47.2353 141.656 42.5508H165.14C165.14 42.5508 165.315 40.6213 165.315 39.1576C165.315 32.074 160.433 23.5891 149.154 23.5891C138.111 23.5891 133.171 32.1914 133.171 40.3278C133.171 48.4642 138.69 57.0664 149.62 57.0664C155.42 57.0664 160.663 55.0708 163.388 50.4854L156.305 45.7716ZM141.831 36.5237C142.702 32.2501 145.317 29.9207 149.154 29.9207C153.456 29.9207 155.897 32.6133 156.076 36.5237H141.831ZM128.817 7.3054C127.754 6.59 126.503 6.2083 125.224 6.2085C123.945 6.2087 122.695 6.5907 121.632 7.3063C120.568 8.0219 119.74 9.0389 119.25 10.2287C118.761 11.4186 118.633 12.7278 118.883 13.9908C119.132 15.2538 119.748 16.4139 120.653 17.3245C121.557 18.235 122.71 18.855 123.964 19.1061C125.219 19.3572 126.519 19.2282 127.7 18.7352C128.882 18.2423 129.892 17.4077 130.602 16.3368C131.554 14.9005 131.901 13.1426 131.566 11.4491C131.231 9.7557 130.243 8.2653 128.817 7.3054ZM188.479 31.2009V24.1174H180.686V13.1894L172.081 16.9018V24.1174H166.907V31.2009H172.081V45.4855C172.081 52.9799 177.083 57.0187 183.768 57.0187C185.377 57.0709 186.98 56.7925 188.479 56.2007V48.8237C187.363 49.3203 186.15 49.5596 184.93 49.5243C182.315 49.5243 180.686 47.8295 180.686 44.6674V31.2009H188.479ZM116.758 67.9614C124.004 68.2549 128.916 63.4493 128.916 55.8852V24.11H124.693C123.534 24.11 122.421 24.5738 121.602 25.3994C120.782 26.2249 120.321 27.3446 120.321 28.5121V54.7113C120.321 58.4641 118.682 60.4596 115.701 60.4596H114.299V67.9027L116.758 67.9614Z" fill="#280459"/>
<path d="M202.084 56.7309H193.599V24.3027H202.084V56.7309Z" fill="#280459"/>
<path d="M197.908 6.39942C199.186 6.39872 200.437 6.77981 201.501 7.49461H201.486C202.915 8.45161 203.907 9.94071 204.245 11.6343C204.583 13.328 204.24 15.0875 203.29 16.526C202.579 17.597 201.57 18.432 200.389 18.9253C199.207 19.4186 197.907 19.5481 196.653 19.2975C195.398 19.0468 194.245 18.4272 193.341 17.5171C192.436 16.6069 191.82 15.4471 191.569 14.1842C191.319 12.9213 191.447 11.6121 191.935 10.4221C192.424 9.23212 193.253 8.21482 194.316 7.49872C195.379 6.78272 196.629 6.40012 197.908 6.39942Z" fill="#280459"/>
<path d="M241.485 55.6227L228.789 24.116H239.049L246.423 43.5494L253.797 24.116H263.735L245.91 68.4061H236.035L241.485 55.6227Z" fill="#280459"/>
<path d="M211.357 22.0499C211.357 18.1761 212.512 15.1632 214.82 13.0111C217.171 10.859 220.142 9.78296 223.733 9.78296C225.571 9.78296 227.088 10.0197 228.285 10.4932V18.6926C227.217 18.2622 226.127 18.047 225.015 18.047C223.733 18.047 222.707 18.4559 221.937 19.2737C221.211 20.0485 220.847 21.1675 220.847 22.631V24.1159H228.285V31.8635H220.847V56.6556H211.357V31.8635H206.356V24.1159H211.357V22.0499Z" fill="#280459"/>
<path d="M37.846 39.1905V39.1575C41.817 31.5934 48.554 17.4336 52.444 9.17614C51.553 8.81364 50.6 8.63215 49.639 8.64225C48.678 8.65235 47.728 8.85375 46.845 9.23485L9.06439 25.5553C9.06439 25.5553 21.2365 29.4914 37.846 39.1905Z" fill="#280459"/>
<path d="M57.647 52.3049C64.117 44.7188 74.643 32.3748 79.233 26.9934C80.592 28.3648 81.357 30.2214 81.361 32.1584L81.299 73.5813C81.299 73.5813 72.941 63.8786 57.618 52.3343L57.647 52.3049Z" fill="#280459"/>
<path d="M0 81.0719C17.0977 69.7844 31.955 50.3679 37.831 39.1904C41.03 41.0576 44.364 43.1192 47.869 45.4486C51.373 47.778 54.623 50.1001 57.611 52.3488C49.136 62.29 30.7963 81.0719 0 81.0719Z" fill="#280459"/>
<path d="M73.361 0C74.773 0 76.154 0.4219 77.328 1.2122C78.899 2.27 79.99 3.9124 80.36 5.7789C80.73 7.6454 80.35 9.5836 79.302 11.1681C78.52 12.3518 77.406 13.2751 76.102 13.8213C74.799 14.3675 73.363 14.5119 71.978 14.2363C70.592 13.9606 69.319 13.2774 68.32 12.2729C67.32 11.2685 66.639 9.988 66.362 8.5936C66.086 7.1992 66.226 5.7535 66.766 4.4396C67.306 3.1256 68.22 2.0024 69.394 1.2121C70.568 0.421799 71.949 0 73.361 0Z" fill="#280459"/>
<path d="M297.566 57.2826C294.409 57.2826 291.636 56.5572 289.246 55.1066C286.9 53.6559 285.065 51.6719 283.742 49.1546C282.462 46.6372 281.822 43.7786 281.822 40.5786C281.822 37.3786 282.484 34.5412 283.806 32.0666C285.129 29.5492 286.964 27.5866 289.31 26.1786C291.657 24.7279 294.43 24.0026 297.63 24.0026C300.233 24.0026 302.537 24.5359 304.542 25.6026C306.548 26.6692 308.105 28.1626 309.214 30.0826V10.4346H314.59V56.5146H309.726L309.214 51.2666C308.19 52.8026 306.718 54.1892 304.798 55.4266C302.878 56.6639 300.468 57.2826 297.566 57.2826ZM298.142 52.6106C300.276 52.6106 302.153 52.1199 303.774 51.1386C305.438 50.1146 306.718 48.7066 307.614 46.9146C308.553 45.1226 309.022 43.0319 309.022 40.6426C309.022 38.2532 308.553 36.1626 307.614 34.3706C306.718 32.5786 305.438 31.1919 303.774 30.2106C302.153 29.1866 300.276 28.6746 298.142 28.6746C296.052 28.6746 294.174 29.1866 292.51 30.2106C290.889 31.1919 289.609 32.5786 288.67 34.3706C287.774 36.1626 287.326 38.2532 287.326 40.6426C287.326 43.0319 287.774 45.1226 288.67 46.9146C289.609 48.7066 290.889 50.1146 292.51 51.1386C294.174 52.1199 296.052 52.6106 298.142 52.6106Z" fill="#9A81B8"/>
<path d="M337.818 57.2827C334.831 57.2827 332.143 56.6 329.754 55.2347C327.364 53.8693 325.466 51.9493 324.058 49.4747C322.692 46.9573 322.01 44.0133 322.01 40.6427C322.01 37.272 322.714 34.3493 324.122 31.8747C325.53 29.3573 327.428 27.416 329.818 26.0507C332.25 24.6853 334.959 24.0027 337.946 24.0027C340.932 24.0027 343.62 24.6853 346.01 26.0507C348.399 27.416 350.276 29.3573 351.642 31.8747C353.05 34.3493 353.754 37.272 353.754 40.6427C353.754 44.0133 353.05 46.9573 351.642 49.4747C350.234 51.9493 348.314 53.8693 345.882 55.2347C343.492 56.6 340.804 57.2827 337.818 57.2827ZM337.818 52.6747C339.652 52.6747 341.359 52.2267 342.938 51.3307C344.516 50.4347 345.796 49.0907 346.778 47.2987C347.759 45.5067 348.25 43.288 348.25 40.6427C348.25 37.9973 347.759 35.7787 346.778 33.9867C345.839 32.1947 344.58 30.8507 343.002 29.9547C341.423 29.0587 339.738 28.6107 337.946 28.6107C336.111 28.6107 334.404 29.0587 332.826 29.9547C331.247 30.8507 329.967 32.1947 328.986 33.9867C328.004 35.7787 327.514 37.9973 327.514 40.6427C327.514 43.288 328.004 45.5067 328.986 47.2987C329.967 49.0907 331.226 50.4347 332.762 51.3307C334.34 52.2267 336.026 52.6747 337.818 52.6747Z" fill="#9A81B8"/>
<path d="M375.821 57.2827C372.791 57.2827 370.061 56.6 367.629 55.2347C365.239 53.8267 363.341 51.8853 361.933 49.4107C360.567 46.8933 359.885 43.9707 359.885 40.6427C359.885 37.3147 360.567 34.4133 361.933 31.9387C363.341 29.4213 365.239 27.48 367.629 26.1147C370.061 24.7067 372.791 24.0027 375.821 24.0027C379.575 24.0027 382.733 24.984 385.293 26.9467C387.895 28.9093 389.538 31.5333 390.221 34.8187H384.717C384.29 32.856 383.245 31.3413 381.581 30.2747C379.917 29.1653 377.975 28.6107 375.757 28.6107C373.965 28.6107 372.279 29.0587 370.701 29.9547C369.122 30.8507 367.842 32.1947 366.861 33.9867C365.879 35.7787 365.389 37.9973 365.389 40.6427C365.389 43.288 365.879 45.5067 366.861 47.2987C367.842 49.0907 369.122 50.456 370.701 51.3947C372.279 52.2907 373.965 52.7387 375.757 52.7387C377.975 52.7387 379.917 52.2053 381.581 51.1387C383.245 50.0293 384.29 48.472 384.717 46.4667H390.221C389.581 49.6667 387.959 52.2693 385.357 54.2747C382.754 56.28 379.575 57.2827 375.821 57.2827Z" fill="#9A81B8"/>
<path d="M409.889 57.2827C406.091 57.2827 402.934 56.3227 400.417 54.4027C397.899 52.4827 396.427 49.88 396.001 46.5947H401.505C401.846 48.2587 402.721 49.7093 404.129 50.9467C405.579 52.1413 407.521 52.7387 409.953 52.7387C412.214 52.7387 413.878 52.2693 414.945 51.3307C416.011 50.3493 416.545 49.1973 416.545 47.8747C416.545 45.9547 415.841 44.6747 414.433 44.0347C413.067 43.3947 411.126 42.8187 408.609 42.3067C406.902 41.9653 405.195 41.4747 403.489 40.8347C401.782 40.1947 400.353 39.2987 399.201 38.1467C398.049 36.952 397.473 35.3947 397.473 33.4747C397.473 30.7013 398.497 28.44 400.545 26.6907C402.635 24.8987 405.451 24.0027 408.993 24.0027C412.363 24.0027 415.115 24.856 417.249 26.5627C419.425 28.2267 420.683 30.616 421.025 33.7307H415.713C415.499 32.1093 414.795 30.8507 413.601 29.9547C412.449 29.016 410.891 28.5467 408.929 28.5467C407.009 28.5467 405.515 28.952 404.449 29.7627C403.425 30.5733 402.913 31.64 402.913 32.9627C402.913 34.2427 403.574 35.2453 404.897 35.9707C406.262 36.696 408.097 37.3147 410.401 37.8267C412.363 38.2533 414.219 38.7867 415.969 39.4267C417.761 40.024 419.211 40.9413 420.321 42.1787C421.473 43.3733 422.049 45.1227 422.049 47.4267C422.091 50.2853 421.003 52.6533 418.785 54.5307C416.609 56.3653 413.643 57.2827 409.889 57.2827Z" fill="#9A81B8"/>
</svg>
